# Blender v2.79 (sub 0) OBJ File: 'leafs.blend1'
# www.blender.org
mtllib leafs.mtl
o Cube.003
v 0.415837 2.282222 0.214767
v 0.415837 2.282222 0.627879
v 0.075789 2.282222 0.627879
v 0.075789 2.282222 0.214767
v -2.760300 2.557134 0.627879
v -2.760300 2.557134 0.214767
v -2.488154 2.557134 0.214767
v -2.488154 2.557134 0.627879
v -1.243230 2.007433 1.750835
v -1.243230 3.413336 1.750835
v -1.243230 2.007433 0.344932
v -1.243230 3.413336 0.344932
v 0.162673 2.007433 1.750835
v 0.162673 3.413336 1.750835
v 0.162673 2.007433 0.344932
v 0.162673 3.413336 0.344932
v -0.147853 2.261286 0.696041
v -0.147853 3.653368 0.696041
v -0.147853 2.261286 -0.696041
v -0.147853 3.653368 -0.696041
v 1.244229 2.261286 0.696041
v 1.244229 3.653368 0.696041
v 1.244229 2.261286 -0.696041
v 1.244229 3.653368 -0.696041
v -0.587335 2.472706 -1.016314
v -0.587335 2.472706 1.016314
v -3.324191 2.472706 1.016314
v -3.324191 2.472706 -1.016315
v -0.587334 4.120767 -1.016314
v -0.587336 4.120767 1.016315
v -3.324192 4.120767 1.016314
v -3.324191 4.120767 -1.016314
vn 0.0000 1.0000 0.0000
vn -1.0000 0.0000 0.0000
vn 0.0000 0.0000 -1.0000
vn 1.0000 0.0000 0.0000
vn 0.0000 0.0000 1.0000
vn 0.0000 -1.0000 0.0000
usemtl Material.001
s off
f 4//1 3//1 2//1 1//1
f 8//1 7//1 6//1 5//1
usemtl Material.002
f 9//2 10//2 12//2 11//2
f 11//3 12//3 16//3 15//3
f 15//4 16//4 14//4 13//4
f 13//5 14//5 10//5 9//5
f 11//6 15//6 13//6 9//6
f 16//1 12//1 10//1 14//1
f 17//2 18//2 20//2 19//2
f 19//3 20//3 24//3 23//3
f 23//4 24//4 22//4 21//4
f 21//5 22//5 18//5 17//5
f 19//6 23//6 21//6 17//6
f 24//1 20//1 18//1 22//1
f 25//6 26//6 27//6 28//6
f 29//1 32//1 31//1 30//1
f 25//4 29//4 30//4 26//4
f 26//5 30//5 31//5 27//5
f 27//2 31//2 32//2 28//2
f 29//3 25//3 28//3 32//3
